<svg xmlns="http://www.w3.org/2000/svg" xmlns:xlink="http://www.w3.org/1999/xlink" xml:space="preserve" id="announcing-discount" x="0" y="0" enable-background="new 0 0 1500 1500" version="1.1" viewBox="0 0 1500 1500"><path fill="#433faa" d="M799,1279H341.1c-13.1,0-24.5-9-27.7-21.7L237,946.7c-4.4-18,9.2-35.3,27.7-35.3h457.9   c13.1,0,24.5,9,27.7,21.7l76.4,310.6C831.1,1261.7,817.5,1279,799,1279z"></path><path fill="#1d3769" d="M280.6,941.2h-44.3c0.1,1.8,0.3,3.6,0.8,5.4l76.4,310.6c0.5,2,1.2,3.8,2,5.6h37.1L280.6,941.2z"></path><path fill="#d7d4ff" d="M816,1279H358.1c-13.1,0-24.5-9-27.7-21.7L254,946.7c-4.4-18,9.2-35.3,27.7-35.3h457.9   c13.1,0,24.5,9,27.7,21.7l76.4,310.6C848.1,1261.7,834.5,1279,816,1279z"></path><path fill="#433faa" d="M797.1,1266H371.6c-12.2,0-22.8-8.3-25.7-20.2l-71-288.6c-4.1-16.7,8.5-32.8,25.7-32.8h425.5   c12.2,0,22.8,8.3,25.7,20.2l71,288.6C826.9,1249.9,814.2,1266,797.1,1266z"></path><path fill="#d7d4ff" d="M1133.3,1294.8H438.1c-15.9,0-28.9-12.9-28.9-28.9l0,0h752.9l0,0C1162.2,1281.9,1149.3,1294.8,1133.3,1294.8z"></path><defs><path id="SVGID_1_" d="M797.1,1266H371.6c-12.2,0-22.8-8.3-25.7-20.2l-71-288.6c-4.1-16.7,8.5-32.8,25.7-32.8l412.5-606.3     c12.2,0,704.7-124,707.6-112.1l290.1,1021.4C1714.9,1244,814.2,1266,797.1,1266z"></path></defs><clipPath id="SVGID_00000047037141522271477180000016253096800723421088_"><use xlink:href="#SVGID_1_" overflow="visible" fill="#000000"></use></clipPath><g clip-path="url(#SVGID_00000047037141522271477180000016253096800723421088_)"><path fill="#bcbec0" d="M631 1005.4c0 0 22.1-5.4 33.8 12.8 11.7 18.2-38.8 40.1-38.8 40.1L631 1005.4zM705.7 1173.3c5.1-3.2 32.1-12.3 14.2-52.7l-28.7 5L705.7 1173.3z"></path><path fill="#9f693a" d="M961,804.5c-5.5-19.8-24.1-43.5-107.2-14.6c-83.1,28.9-87.2,148.8-87.2,148.8l-130.9,85.7     c-2.1,29.1,2.2,95.6,66.1,125.6l126-121.4c0,0,102.8-16.8,122.8-38.9c20-22.1,11.5-53.3,11.5-53.3     C971.7,896,966.5,824.3,961,804.5z"></path><path fill="#0fd6e1" d="M834.1,988l43.4-5c7.9-0.9,13.9-10.7,13.6-21.9L884.3,767c-0.4-11.2-7.1-19.5-15-18.6l-43.4,5L834.1,988z"></path><path fill="#ff2d55" d="M701.8,1150.1c-64-30-68.3-96.4-66.1-125.6l-362.3,222.3l42.9,67.4l167.5,49L701.8,1150.1z"></path><path fill="#231f20" d="M635.7,1024.5l-98.2,60.3c-1.8,21.2,4.5,46.8,24.3,76.5c22.6,34,44.9,52.6,65.2,62.1l75-73.3     C637.8,1120.1,633.6,1053.7,635.7,1024.5z"></path><path fill="#fff" d="M631,1005.4c0,0,13,3.8,14.3,7.9c1.3,4.1-5,8.3-5,8.3s-8.6,89.5,68.8,121.6c0,0,13.5,4.9,12.9,13.3     c-0.6,8.4-16.3,16.8-16.3,16.8s2.8,24.6-18.8,32.3s-66.1,16.4-112.4-53.2s-3.3-112.2,29.9-120.6     C604.4,1031.7,613.5,1009.4,631,1005.4z"></path><path fill="#1d3769" d="M895.8,758.3l-88.1,28.6c-34.8,11.3-68.3-9-74.9-45.3l-9.9-54.2c-6.6-36.3,16.2-74.8,51-86.1l88.1-28.6     c34.8-11.3,68.3,9,74.9,45.3l9.9,54.2C953.4,708.4,930.6,747,895.8,758.3z"></path><path fill="#1d3769" d="M810.4,991.7l56.9-6.6l-8.1-234.5l-56.9,6.6c-7.9,0.9-13.9,10.7-13.6,21.9l6.7,194.1     C795.9,984.3,802.6,992.6,810.4,991.7z"></path><path fill="#9f693a" d="M968.5,824.2c0,0,2.1-37.3-19.6-50.5c-21.7-13.2-84.2,1.7-102.2,30.9c-18,29.2,5.8,44.4,17.4,43.6     c0,0-31.5,35,4.2,56.8c0,0-18.3,17.9,2.2,36.9c0,0-16.6,6.8-11.4,30.7c3.2,14.5,11.3,15.9,34.1,13.1c0,0-31.7,13.2-27.7,23.9     c4.1,10.7,129.6-10,108.6-63.9c0,0,24-21.4,5.2-60.7C979.2,885.1,995.3,849.6,968.5,824.2z"></path><path fill="none" stroke="#000" stroke-miterlimit="10" d="M968.5 824.2c0 0-57.2-1.3-104.4 24.1M868.3 905.1c0 0 51.7-27.7 110.9-19.9M870.5 942c0 0 37.3 10.7 103.5 3.8M893.2 985.9c0 0 21.6 5.7 47.4 0"></path><path fill="#9f693a" d="M766.6,938.8c0,0-19.8-120.1,29.1-142.9s46.4,44.8,86,53.5l10.7,2.2c13.2,2.7,23.5,13.5,25,26.9     c1.3,11.4-3.6,25.3-25.2,38.6c-30.7,18.8-65.6-24.1-65.6-24.1S808.9,969.3,766.6,938.8z"></path><path fill="none" stroke="#000" stroke-miterlimit="10" d="M842.9,812c10.1,14.9,19.4,33.2,38.7,37.4l10.7,2.2c13.2,2.7,23.5,13.5,25,26.9     c1.3,11.4-3.6,25.3-25.2,38.6"></path><path fill="#0fd6e1" d="M895.8,758.3l-6.1,2c-34.8,11.3-68.3-9-74.9-45.3l-9.9-54.2c-6.6-36.3,16.2-74.8,51-86.1l6.1-2     c34.8-11.3,68.3,9,74.9,45.3l9.9,54.2C953.4,708.4,930.6,747,895.8,758.3z"></path><path fill="#d7d4ff" d="M893.4,741.8l296.9,43.9l-91.3-428.6L864.3,581.5c-19.3,15.8-29,41.5-24.7,65l9.6,52.6     C853.4,722.8,870.9,739.6,893.4,741.8z"></path><ellipse cx="1206.6" cy="555.8" fill="#1d3769" rx="184.7" ry="233.6" transform="rotate(-8.441 1206.642 555.798)"></ellipse><defs><ellipse id="SVGID_00000049185701624282187960000009364259936318548389_" cx="1206.6" cy="555.8" rx="184.7" ry="233.6" transform="rotate(-8.441 1206.642 555.798)"></ellipse></defs><clipPath id="SVGID_00000060014586501706977620000003476059562456750241_"><use xlink:href="#SVGID_00000049185701624282187960000009364259936318548389_" overflow="visible" fill="#000000"></use></clipPath><polygon fill="#0fd6e1" points="1194.6 498.4 976.3 546.7 1001.6 685.6 1218.6 613.1" clip-path="url(#SVGID_00000060014586501706977620000003476059562456750241_)"></polygon><ellipse cx="1206.6" cy="555.8" fill="#fff" rx="46.3" ry="58.6" transform="rotate(-8.441 1206.642 555.798)"></ellipse><path fill="none" stroke="#1d3769" stroke-linecap="round" stroke-linejoin="round" stroke-miterlimit="10" d="M629.9,1135.5c0,0,16.4,37.7,65.7,37.7"></path></g><path fill="#1d3769" d="M769.2 1266h-360v0c0 15.9 12.9 28.9 28.9 28.9h331.1V1266zM533.2 506.5H317.4c-28.8 0-52.1 23.3-52.1 52.1v149c0 28.8 23.3 52.1 52.1 52.1h94.1l96.6 90h15.4l-15.4-38.8v-51.2h25.1c28.8 0 52.1-23.3 52.1-52.1v-149C585.3 529.8 562 506.5 533.2 506.5z"></path><path fill="#0fd6e1" d="M548.6,506.5H332.8c-28.8,0-52.1,23.3-52.1,52.1v149c0,28.8,23.3,52.1,52.1,52.1h94.1l96.6,90v-90h25.1   c28.8,0,52.1-23.3,52.1-52.1v-149C600.6,529.8,577.3,506.5,548.6,506.5z"></path><path fill="none" stroke="#000" stroke-miterlimit="10" d="M905.4,857.6c0,0-23.5,36.3-37.1,29.1s-5.9-28.9,9.5-38.4"></path><path fill="#fff" d="M403.7,646.1c-7.6,0-14-2.7-19.3-8c-5.3-5.4-8-11.8-8-19.2c0-7.6,2.6-14,8-19.3s11.7-8,19.3-8    c7.5,0,13.9,2.7,19.2,8s8,11.7,8,19.3c0,7.5-2.7,13.9-8,19.2C417.6,643.5,411.2,646.1,403.7,646.1z M391,631.7    c3.5,3.6,7.8,5.3,12.7,5.3c5,0,9.2-1.8,12.7-5.3c3.5-3.5,5.3-7.8,5.3-12.8s-1.8-9.3-5.3-12.8c-3.5-3.6-7.8-5.3-12.7-5.3    c-5,0-9.2,1.8-12.7,5.3c-3.5,3.6-5.3,7.8-5.3,12.8S387.4,628.1,391,631.7z M412.4,691L412.4,691c-3.6,0-5.8-4-3.9-7l56.7-89.4    c0.8-1.2,2.1-1.9,3.5-1.9h1.1c3.2,0,5.2,3.6,3.5,6.3l-57,89.9C415.4,690.2,414,691,412.4,691z M477.6,692.1c-7.6,0-14-2.7-19.3-8    c-5.3-5.4-8-11.8-8-19.2c0-7.6,2.7-14,8-19.3s11.7-8,19.3-8c7.5,0,13.9,2.7,19.2,8s8,11.7,8,19.3c0,7.5-2.7,13.9-8,19.2    C491.5,689.4,485.1,692.1,477.6,692.1z M464.9,677.6c3.5,3.6,7.8,5.3,12.7,5.3s9.2-1.8,12.7-5.3c3.5-3.5,5.3-7.8,5.3-12.8    c0-5-1.7-9.3-5.3-12.8c-3.5-3.6-7.8-5.3-12.7-5.3s-9.2,1.8-12.7,5.3c-3.5,3.6-5.3,7.8-5.3,12.8    C459.6,669.8,461.4,674.1,464.9,677.6z"></path><line x1="253.2" x2="1267.5" y1="1294.8" y2="1294.8" fill="none" stroke="#231f20" stroke-linecap="round" stroke-miterlimit="10" stroke-width="3"></line></svg>